<?xml version="1.0" standalone="no"?>
<!DOCTYPE svg PUBLIC "-//W3C//DTD SVG 1.1//EN" "http://www.w3.org/Graphics/SVG/1.1/DTD/svg11.dtd" >
<svg xmlns="http://www.w3.org/2000/svg">
<metadata>
This is a custom SVG webfont generated by Font Squirrel.
Copyright   :  19922003 Apple Computer Inc
</metadata>
<defs>
<font id="ThonburiRegular" horiz-adv-x="1364" >
<font-face units-per-em="2048" ascent="1638" descent="-410" />
<missing-glyph horiz-adv-x="680" />
<glyph unicode=" "  horiz-adv-x="680" />
<glyph unicode="&#x09;" horiz-adv-x="680" />
<glyph unicode="&#xa0;" horiz-adv-x="680" />
<glyph unicode="!" horiz-adv-x="620" d="M186 1552h248l-45 -1164h-153zM218 0v186h187v-186h-187z" />
<glyph unicode="&#x22;" horiz-adv-x="1024" d="M186 1614h218l-41 -621h-128zM625 1614h213l-44 -621h-127z" />
<glyph unicode="#" d="M62 411v140h226l112 426h-338v140h379l117 435h144l-115 -435h378l117 435h149l-120 -435h192v-140h-233l-113 -426h346v-140h-381l-112 -411h-148l113 411h-375l-112 -411h-147l109 411h-188zM438 551h376l115 426h-378z" />
<glyph unicode="$" d="M151 386v10h202v-10q0 -90 51.5 -147.5t223.5 -78.5v538l-62 24q-215 86 -288 182t-73 230q0 106 45.5 193.5t134 144.5t243.5 76v159h155v-159q222 -16 299 -106t77 -191v-10h-201v10q0 55 -44.5 90.5t-130.5 49.5v-547l85 -30q101 -39 183.5 -95.5t114.5 -129 t32 -151.5q0 -98 -46 -193t-131 -159t-238 -86v-155h-155v155q-277 16 -377 131t-100 255zM399 1139q0 -73 40.5 -123.5t149.5 -99.5l39 -15v492q-122 -21 -175.5 -92.5t-53.5 -161.5zM783 165q90 11 132.5 45.5t65.5 88.5t23 112q0 73 -39.5 123t-133.5 90l-48 18v-477z " />
<glyph unicode="%" horiz-adv-x="1854" d="M62 1086q0 214 100.5 340t248.5 126t248.5 -126t100.5 -340t-100.5 -339.5t-248.5 -125.5t-248.5 125.5t-100.5 339.5zM233 1086q0 -142 48.5 -234t129.5 -92q79 0 129 92.5t50 233.5t-50 233.5t-130 92.5t-128.5 -92.5t-48.5 -233.5zM275 0l1103 1552h177l-1086 -1552 h-194zM1094 465q0 214 100.5 340t248.5 126t248.5 -125.5t100.5 -340.5q0 -214 -100.5 -339.5t-248.5 -125.5t-248.5 125.5t-100.5 339.5zM1264 465q0 -142 49.5 -233.5t129.5 -91.5t129 91.5t49 233.5t-49 234t-129 92t-129.5 -92t-49.5 -234z" />
<glyph unicode="&#x26;" horiz-adv-x="1488" d="M78 428q0 159 104.5 300t268.5 225q-11 18 -16 26q-68 107 -87 150t-28 80.5t-9 71.5q0 79 48 157t130 119t187 41q151 0 238 -79.5t87 -186.5q0 -122 -85.5 -238t-217.5 -192q168 -288 342 -510q51 75 76 165.5t25 264.5v55h186v-24q0 -352 -186 -588q80 -100 248 -265 h-270q-37 37 -74 81l-38 45q-100 -90 -201 -131.5t-223 -41.5q-153 0 -264.5 62.5t-176 174.5t-64.5 238zM272 435q0 -90 43.5 -165t126.5 -118t161 -43q54 0 126 23t183 117q-68 84 -181 247t-200 323q-123 -64 -191 -169t-68 -215zM510 1295q0 -27 8.5 -59.5t21.5 -63 t59 -101.5q6 -9 19 -29q105 58 158.5 136.5t53.5 136.5q0 32 -20.5 66.5t-62 53t-80.5 18.5q-78 0 -117.5 -52t-39.5 -106z" />
<glyph unicode="'" horiz-adv-x="620" d="M171 1614h279l-71 -621h-134z" />
<glyph unicode="(" horiz-adv-x="915" d="M178 636q0 180 49 364t160.5 358t240.5 287h155q-174 -184 -250 -332.5t-116.5 -325.5t-40.5 -351t40.5 -351t116.5 -325.5t250 -331.5h-155q-129 112 -240.5 286t-160.5 358t-49 364z" />
<glyph unicode=")" horiz-adv-x="915" d="M132 -372q174 183 250 331.5t116.5 325.5t40.5 351t-40.5 351t-116.5 326t-250 332h155q129 -113 240.5 -287t160.5 -358t49 -364t-49 -364t-160.5 -358t-240.5 -286h-155z" />
<glyph unicode="*" horiz-adv-x="1040" d="M78 1206l40 148l340 -102l-17 346h156l-17 -346l340 102l40 -148l-338 -68l202 -308l-127 -85l-178 316l-178 -316l-127 85l202 308z" />
<glyph unicode="+" d="M124 481v155h481v481h155v-481h481v-155h-481v-481h-155v481h-481z" />
<glyph unicode="," horiz-adv-x="620" d="M178 0v264h264v-164q0 -148 -28.5 -225.5t-86.5 -142.5t-149 -104v120q48 28 73.5 68.5t38.5 84.5t13 99h-125z" />
<glyph unicode="-" horiz-adv-x="776" d="M78 551v155h621v-155h-621z" />
<glyph unicode="." horiz-adv-x="620" d="M178 0v264h264v-264h-264z" />
<glyph unicode="/" horiz-adv-x="1102" d="M47 -47l834 1645h174l-830 -1645h-178z" />
<glyph unicode="0" d="M116 776q0 380 156.5 601t409.5 221q254 0 410.5 -221t156.5 -601t-156.5 -601.5t-410.5 -221.5t-410 221.5t-156 601.5zM310 776q0 -262 88 -464.5t284 -202.5q197 0 285 202.5t88 464.5q0 261 -88 464t-285 203q-196 0 -284 -203t-88 -464z" />
<glyph unicode="1" d="M303 1234v173l314 145h186v-1552h-186v1359z" />
<glyph unicode="2" d="M178 0v161q0 126 78 274.5t262 290.5l105 81q210 162 267 242q56 80 56 167q0 89 -75 158t-216 69q-128 0 -190 -49.5t-62 -111.5v-10h-186v10q0 82 55.5 155t150 117t238.5 44q263 0 375 -111.5t112 -267.5q0 -83 -35 -167t-138.5 -175.5t-168.5 -136.5l-76 -52 q-358 -246 -358 -479v-38h807v-171h-1001z" />
<glyph unicode="3" d="M171 277v10h186v-10q0 -84 78.5 -126t201.5 -42q96 0 169 35.5t111 115.5t38 174q0 145 -114.5 243.5t-350.5 98.5h-94v155h116q136 0 213 43t122 107.5t45 144.5q0 101 -74 159t-196 58q-70 0 -131 -18t-93.5 -61t-32.5 -90v-10h-178v10q0 122 103 223t342 101 q227 0 341 -97t114 -250q0 -84 -33 -156.5t-97.5 -129.5t-185.5 -92q189 -54 283 -160.5t94 -265.5q0 -187 -131.5 -340.5t-398.5 -153.5q-234 0 -340.5 99.5t-106.5 224.5z" />
<glyph unicode="4" d="M109 473v155l745 924h186v-924h217v-155h-217v-473h-186v473h-745zM314 628h540v678z" />
<glyph unicode="5" d="M202 262v10h186v-10q0 -67 71 -110.5t192 -43.5q163 0 241 105.5t78 236.5q0 148 -104 248.5t-421 100.5h-142v753h799v-171h-628v-419h47q242 0 373.5 -59.5t200.5 -167t69 -260.5q0 -203 -126 -362.5t-384 -159.5q-206 0 -329 90.5t-123 218.5z" />
<glyph unicode="6" d="M178 766q0 380 155.5 606t446.5 226q198 0 298.5 -87t100.5 -198v-10h-186v10q0 48 -52.5 89t-157.5 41q-123 0 -216 -74t-146.5 -242.5t-53.5 -347.5l1 -55q68 89 134 134t132 66.5t143 21.5q200 0 320.5 -142.5t120.5 -345.5q0 -142 -62.5 -258t-174 -181.5 t-243.5 -65.5q-154 0 -288 90.5t-203 272.5t-69 450zM418 451q0 -92 42.5 -174.5t116.5 -125t161 -42.5q122 0 204 101.5t82 253.5q0 151 -86.5 239t-210.5 88q-137 0 -223 -100.5t-86 -239.5z" />
<glyph unicode="7" d="M155 1381v171h1047v-171q-23 -34 -26 -38l-143 -192q-134 -182 -277 -443t-170.5 -396t-27.5 -235v-77h-201v67q0 163 46.5 329.5t243 458t332.5 478.5l35 48h-859z" />
<glyph unicode="8" d="M151 423q0 129 74.5 247t226.5 186q-119 59 -179 145t-60 198q0 109 59.5 205t173 145t236.5 49q124 0 237.5 -49.5t173 -145t59.5 -204.5q0 -112 -60 -198t-180 -145q152 -68 227 -186t75 -247q0 -121 -66 -237t-178.5 -174.5t-287.5 -58.5q-174 0 -286.5 58.5 t-178.5 174.5t-66 237zM345 435q0 -84 43.5 -164t124 -121t169.5 -41q90 0 170.5 41t124 121t43.5 164q0 87 -46 170t-125 127t-167 44t-166.5 -44t-124.5 -127t-46 -170zM407 1189q0 -104 77.5 -181t197.5 -77t198 77t78 181q0 114 -83.5 184t-192.5 70q-108 0 -191.5 -70 t-83.5 -184z" />
<glyph unicode="9" d="M147 1093q0 143 62.5 258.5t174 181t243.5 65.5q153 0 287.5 -90.5t203.5 -272t69 -449.5q0 -382 -156 -607.5t-447 -225.5q-198 0 -298 87t-100 198v10h186v-10q0 -47 52 -88.5t157 -41.5q124 0 216.5 74t146.5 242.5t54 347.5l-1 55q-68 -89 -134.5 -133.5 t-132.5 -66.5t-142 -22q-201 0 -321 143t-120 345zM341 1088q0 -152 86.5 -240t210.5 -88q136 0 222 101t86 240q0 91 -42 174t-116.5 125.5t-161.5 42.5q-122 0 -203.5 -101.5t-81.5 -253.5z" />
<glyph unicode=":" horiz-adv-x="620" d="M178 0v264h264v-264h-264zM178 853v264h264v-264h-264z" />
<glyph unicode=";" horiz-adv-x="620" d="M178 0v264h264v-164q0 -148 -28.5 -225.5t-86.5 -142.5t-149 -104v120q48 28 73.5 68.5t38.5 84.5t13 99h-125zM178 853v264h264v-264h-264z" />
<glyph unicode="&#x3c;" d="M124 555l1117 562v-173l-770 -389l770 -382v-173z" />
<glyph unicode="=" d="M124 310v155h1117v-155h-1117zM124 652v155h1117v-155h-1117z" />
<glyph unicode="&#x3e;" d="M124 0v178l770 389l-770 382v168l1117 -550z" />
<glyph unicode="?" horiz-adv-x="1164" d="M124 1288v10q0 70 53 143.5t150.5 115t211.5 41.5q120 0 224 -46t159.5 -124.5t55.5 -166.5q0 -48 -23 -121t-137 -179l-71 -66q-69 -65 -113.5 -137t-44.5 -226v-136h-186v94q0 162 51.5 266t110.5 167l78 85q77 84 109 136t32 102q0 85 -76.5 141t-188.5 56 q-94 0 -147.5 -35t-53.5 -110v-10h-194zM403 0v186h186v-186h-186z" />
<glyph unicode="@" horiz-adv-x="1784" d="M124 777q0 226 95 419t271.5 297.5t426.5 104.5q232 0 396 -92.5t255.5 -253.5t91.5 -356q0 -141 -51 -248t-140.5 -168t-194.5 -61q-90 0 -163.5 46t-89.5 152q-54 -84 -125 -133.5t-142 -49.5q-74 0 -141.5 44.5t-101 121t-33.5 166.5q0 117 59 230.5t155.5 163.5 t288.5 50h195v-434q0 -138 38 -185.5t97 -47.5q87 0 154.5 90.5t67.5 245.5q0 176 -80 311t-225.5 209.5t-316.5 74.5q-184 0 -337.5 -84t-233.5 -247t-80 -354q0 -186 76 -361.5t234.5 -262.5t315.5 -87q188 0 375 124v-156q-177 -94 -373 -93q-214 0 -394 104t-275 299.5 t-95 420.5zM648 766q0 -98 38 -137t82 -39q50 0 106 38.5t147 173.5v284h-63q-84 0 -125 -11.5t-74 -38.5q-59 -47 -85 -115.5t-26 -154.5z" />
<glyph unicode="A" horiz-adv-x="1488" d="M31 0l636 1552h204l587 -1552h-218l-161 427h-685l-176 -427h-187zM455 582h564l-272 721z" />
<glyph unicode="B" horiz-adv-x="1303" d="M147 0v1552h412q282 0 378.5 -40.5t145.5 -119.5t49 -175q0 -106 -62 -212t-225 -189q184 -45 266.5 -151.5t82.5 -240.5q0 -111 -57 -209t-162 -156.5t-363 -58.5h-465zM349 155h285q202 0 276.5 75.5t74.5 178.5q0 83 -48 153t-142.5 114.5t-295.5 44.5h-150v-566z M349 877h194q150 0 224.5 40t119 114.5t44.5 153.5q0 87 -69.5 149t-250.5 62h-262v-519z" />
<glyph unicode="C" horiz-adv-x="1334" d="M93 776q0 409 187 616t486 207q146 0 255 -44.5t172.5 -141t63.5 -185.5v-10h-187v10q0 57 -35.5 109.5t-102 79t-159.5 26.5q-238 0 -354.5 -188t-116.5 -479q0 -294 117 -481t353 -187q162 0 230 67t68 149v10h187v-10q0 -92 -63.5 -187t-172.5 -139.5t-256 -44.5 q-296 0 -484 206t-188 617z" />
<glyph unicode="D" horiz-adv-x="1435" d="M147 0v1552h429q313 0 458 -85t226.5 -259.5t81.5 -425.5q0 -235 -73.5 -407.5t-222.5 -273.5t-442 -101h-457zM349 171h238q213 0 321.5 62.5t166 196t57.5 335.5t-52.5 347.5t-160 214.5t-337.5 69h-233v-1225z" />
<glyph unicode="E" horiz-adv-x="1179" d="M147 0v1552h877v-171h-675v-489h589v-155h-589v-566h729v-171h-931z" />
<glyph unicode="F" horiz-adv-x="1132" d="M147 0v1552h877v-171h-675v-535h589v-156h-589v-690h-202z" />
<glyph unicode="G" horiz-adv-x="1380" d="M93 758q0 306 81.5 476.5t229.5 267t351 96.5q139 0 253 -44t181.5 -133.5t67.5 -177.5v-10h-187v10q0 54 -41.5 100.5t-109 73t-153.5 26.5q-226 0 -345 -177t-119 -488q0 -310 122 -490t344 -180q130 0 302 62v443h-349v155h536v-697q-246 -118 -471 -118 q-234 0 -377.5 92.5t-229.5 266.5t-86 446z" />
<glyph unicode="H" horiz-adv-x="1412" d="M147 0v1552h202v-691h713v691h202v-1552h-202v706h-713v-706h-202z" />
<glyph unicode="I" horiz-adv-x="496" d="M147 0v1552h202v-1552h-202z" />
<glyph unicode="J" horiz-adv-x="1008" d="M39 254v10h202v-10q0 -43 23 -77t71.5 -51t107.5 -17q62 0 115.5 28.5t77.5 88t24 261.5v1065h201v-1069q0 -254 -54.5 -347.5t-134.5 -138t-218 -44.5q-227 0 -321 93.5t-94 207.5z" />
<glyph unicode="K" horiz-adv-x="1358" d="M147 0v1552h202v-741l648 741h230l-641 -728l740 -824h-253l-724 811v-811h-202z" />
<glyph unicode="L" horiz-adv-x="1195" d="M147 0v1552h202v-1381h814v-171h-1016z" />
<glyph unicode="M" horiz-adv-x="1614" d="M147 0v1552h198l482 -1109l443 1109h196v-1552h-179v925l5 277h-5l-100 -278l-275 -691h-203l-299 694l-92 252h-5l5 -252v-927h-171z" />
<glyph unicode="N" horiz-adv-x="1451" d="M147 0v1552h200l709 -1103l65 -123l-4 122v1104h186v-1552h-198l-711 1108l-65 125l4 -125v-1108h-186z" />
<glyph unicode="O" horiz-adv-x="1504" d="M93 776q0 395 184 608.5t475 213.5t475.5 -213.5t184.5 -608.5t-184.5 -609t-475.5 -214t-475 214t-184 609zM302 776q0 -302 119.5 -484.5t330.5 -182.5q212 0 331 182.5t119 484.5q0 301 -119 484t-331 183q-211 0 -330.5 -183t-119.5 -484z" />
<glyph unicode="P" horiz-adv-x="1195" d="M147 0v1552h432q247 0 348.5 -50.5t153 -148t51.5 -226.5q0 -218 -148.5 -366t-442.5 -148h-192v-613h-202zM349 768h136q268 0 353 103t85 247q0 125 -68.5 201.5t-271.5 76.5h-234v-628z" />
<glyph unicode="Q" horiz-adv-x="1504" d="M93 775q0 396 184 609.5t476 213.5q291 0 475 -213.5t184 -607.5q0 -198 -43.5 -348.5t-144 -268t-278.5 -179.5q101 -88 215.5 -132.5t242.5 -44.5q100 0 194 34v-178q-95 -32 -199 -32q-148 0 -291 57t-355 263q-253 22 -382 122.5t-203.5 272t-74.5 432.5zM302 776 q0 -302 119.5 -484.5t331.5 -182.5q211 0 330 182.5t119 484.5q0 301 -119 484t-330 183q-212 0 -331.5 -183t-119.5 -484z" />
<glyph unicode="R" horiz-adv-x="1240" d="M147 0v1552h480q177 0 266 -51t141 -147.5t52 -209.5q0 -91 -35 -174.5t-98.5 -151t-196.5 -120.5q50 -28 75 -53t61 -81t63 -105l247 -459h-231l-215 408q-78 148 -203 259h-204v-667h-202zM349 822h197q125 0 189.5 38.5t102.5 112t38 157.5q0 73 -30 130.5t-88 96.5 t-197 39h-212v-574z" />
<glyph unicode="S" horiz-adv-x="1240" d="M109 339v10h202v-10q0 -129 91 -179.5t242 -50.5q132 0 221.5 77t89.5 203q0 102 -77 167q-78 64 -234 128l-81 33q-165 68 -246.5 134.5t-121.5 147.5t-40 181q0 176 124.5 297t389.5 121q243 0 342 -90t99 -210v-10h-202v10q0 38 -30.5 75t-91.5 53.5t-134 16.5 q-149 0 -220.5 -74.5t-71.5 -169.5q0 -64 34 -120.5t93.5 -93.5t200.5 -99l95 -41q228 -98 305 -208q76 -109 76 -235q0 -118 -62 -227t-172 -165.5t-293 -56.5q-174 0 -290.5 41.5t-177 136.5t-60.5 208z" />
<glyph unicode="T" horiz-adv-x="1311" d="M31 1396v156h1249v-156h-520v-1396h-201v1396h-528z" />
<glyph unicode="U" d="M124 527v1025h202v-998q0 -218 42.5 -292.5t132.5 -113.5t201 -39q106 0 189 39t123.5 123.5t40.5 353.5v927h186v-979q0 -272 -62.5 -382t-180.5 -174t-297 -64q-166 0 -304 51t-205.5 158.5t-67.5 364.5z" />
<glyph unicode="V" horiz-adv-x="1488" d="M31 1552h220l492 -1301l527 1301h188l-633 -1552h-203z" />
<glyph unicode="W" horiz-adv-x="1939" d="M78 1552h193l247 -1093l34 -187h9l34 187l284 1093h200l277 -1096l32 -184h9l33 184l255 1096h177l-361 -1552h-205l-287 1113l-37 190h-10l-35 -190l-292 -1113h-205z" />
<glyph unicode="X" horiz-adv-x="1248" d="M31 0l497 788l-458 764h221l351 -586l373 586h201l-476 -748l478 -804h-217l-374 625l-392 -625h-204z" />
<glyph unicode="Y" horiz-adv-x="1248" d="M23 1552h235l388 -627l383 627h196l-498 -821v-731h-201v731z" />
<glyph unicode="Z" horiz-adv-x="1179" d="M78 0v186l771 1195h-717v171h939v-171l-767 -1195h782v-186h-1008z" />
<glyph unicode="[" horiz-adv-x="915" d="M233 -372v2017h504v-156h-333v-1706h333v-155h-504z" />
<glyph unicode="\" horiz-adv-x="1102" d="M47 1598h178l830 -1645h-174z" />
<glyph unicode="]" horiz-adv-x="915" d="M178 -217h334v1706h-334v156h504v-2017h-504v155z" />
<glyph unicode="^" d="M124 434l559 1118l558 -1118h-171l-387 776l-388 -776h-171z" />
<glyph unicode="_" d="M62 0h1241v-155h-1241v155z" />
<glyph unicode="`" horiz-adv-x="1210" d="M310 1614h216l296 -326h-170z" />
<glyph unicode="a" horiz-adv-x="1132" d="M109 275q0 162 134.5 250t463.5 152l100 19v126q0 102 -69 144t-166 42q-116 0 -181 -51t-65 -119v-16h-202v15q0 74 62.5 153t166 119t226.5 40q122 0 222 -38t146 -102.5t46 -242.5v-434q0 -71 3.5 -149.5t35.5 -182.5h-196q-29 90 -29 155q-122 -121 -208.5 -153.5 t-165.5 -32.5q-133 0 -228.5 81.5t-95.5 224.5zM310 271q0 -44 23.5 -82t69.5 -59t91 -21q78 0 153.5 45.5t117.5 121.5t42 177v111l-56 -14q-283 -70 -362 -131.5t-79 -147.5z" />
<glyph unicode="b" horiz-adv-x="1248" d="M132 0q5 55 8.5 134t5.5 129t2 67v1284h186v-691q61 95 114.5 138t117 65t133.5 22q127 0 233 -69.5t165 -207.5t59 -310q0 -254 -123 -423t-343 -169q-72 0 -135 20.5t-112.5 61t-108.5 144.5l-6 -81q-4 -67 -10 -114h-186zM334 558q0 -190 82 -312t230 -122 q136 0 226 108t90 323q0 251 -92 348.5t-219 97.5q-89 0 -165.5 -53.5t-114 -159t-37.5 -230.5z" />
<glyph unicode="c" horiz-adv-x="1116" d="M93 559q0 276 133.5 432.5t380.5 156.5q129 0 220.5 -40.5t148 -111t56.5 -156.5v-10h-187v10v6q0 57 -53 101q-56 46 -175 46q-140 0 -235 -103t-95 -331q0 -229 95 -332t235 -103q118 0 173 46t55 107v10h187v-10q0 -74 -56.5 -150.5t-148 -117t-220.5 -40.5 q-247 0 -380.5 156.5t-133.5 433.5z" />
<glyph unicode="d" horiz-adv-x="1232" d="M93 556q0 255 123 423.5t343 168.5q72 0 135 -20.5t112.5 -61t108.5 -144.5v692h186v-1614h-186v194q-57 -108 -111 -150t-121.5 -58.5t-133.5 -16.5q-126 0 -232 69.5t-165 207.5t-59 310zM287 562q0 -251 87 -348.5t224 -97.5q89 0 165.5 54t114 159t37.5 230 q0 190 -82 312t-230 122q-136 0 -226 -108.5t-90 -322.5z" />
<glyph unicode="e" horiz-adv-x="1179" d="M93 551q0 258 146.5 427.5t377.5 169.5q127 0 230 -55t163 -171.5t60 -324.5v-62h-793q0 -179 96.5 -295t267.5 -116q123 0 179.5 47.5t56.5 105.5v10h186v-10q0 -74 -59 -151t-156 -117t-223 -40q-254 0 -393 165t-139 417zM289 675h603v22q0 78 -37.5 151.5t-103.5 109 t-154 35.5q-104 0 -192 -83.5t-116 -234.5z" />
<glyph unicode="f" horiz-adv-x="799" d="M85 962v155h163v52q0 243 102.5 344t267.5 101q62 0 157 -14v-152q-78 10 -125 10q-90 0 -153 -44t-63 -210v-87h326v-155h-326v-962h-186v962h-163z" />
<glyph unicode="g" horiz-adv-x="1248" d="M93 568q0 168 58 306t163 206t246 68q105 0 188 -41.5t167 -168.5v179h186v-913q0 -344 -72 -454t-182.5 -163t-259.5 -53q-138 0 -247.5 41t-166.5 112.5t-57 148.5v17h186v-16q0 -74 80 -118.5t203 -44.5q100 0 171.5 34.5t115 112t43.5 281.5v134q-57 -118 -148 -177 t-216 -59q-199 0 -328.5 156.5t-129.5 411.5zM287 566q0 -128 36 -224t112.5 -145.5t163.5 -49.5q141 0 228.5 124.5t87.5 320.5q0 179 -92 290t-220 111q-136 0 -226 -112.5t-90 -314.5z" />
<glyph unicode="h" horiz-adv-x="1195" d="M147 0v1614h186v-690q59 91 114.5 135t116 66.5t134.5 22.5q105 0 188.5 -43t129.5 -126.5t46 -267.5v-711h-186v631q0 150 -20 212.5t-76 98t-128 35.5q-82 0 -156 -48t-118.5 -134t-44.5 -246v-549h-186z" />
<glyph unicode="i" horiz-adv-x="480" d="M147 0v1117h186v-1117h-186zM147 1365v187h186v-187h-186z" />
<glyph unicode="j" horiz-adv-x="566" d="M-116 -269l40 -4q55 -6 88 -6q94 0 153.5 47.5t59.5 231.5v1117h187v-1117q0 -169 -40.5 -252t-130.5 -132.5t-195 -49.5q-75 0 -162 17v148zM225 1373v179h187v-179h-187z" />
<glyph unicode="k" horiz-adv-x="1102" d="M147 0v1614h194v-1029l496 532h215l-484 -519l502 -598h-233l-496 585v-585h-194z" />
<glyph unicode="l" horiz-adv-x="480" d="M147 0v1614h186v-1614h-186z" />
<glyph unicode="m" horiz-adv-x="1831" d="M147 0v1117h186v-202q58 101 109 145t112 66t130 22t132 -21.5t109 -64.5t91 -147q57 97 112.5 142.5t114 68t124.5 22.5q95 0 172 -44.5t118.5 -126.5t41.5 -279v-698h-187v621q0 198 -23.5 249.5t-65 79t-100.5 27.5q-83 0 -153 -51.5t-112 -138.5t-42 -244v-543h-186 v621q0 198 -21.5 249.5t-68.5 79.5t-101 28q-76 0 -149.5 -53.5t-115 -142t-41.5 -239.5v-543h-186z" />
<glyph unicode="n" horiz-adv-x="1195" d="M147 0v1117h186v-193q59 91 114.5 135t116 66.5t134.5 22.5q105 0 188.5 -43t129.5 -126.5t46 -267.5v-711h-186v631q0 150 -20 212.5t-78 98t-126 35.5q-82 0 -156 -48t-118.5 -134t-44.5 -246v-549h-186z" />
<glyph unicode="o" horiz-adv-x="1240" d="M93 559q0 292 154.5 440.5t373.5 148.5q218 0 372.5 -148.5t154.5 -440.5q0 -293 -154.5 -441.5t-372.5 -148.5t-373 148.5t-155 441.5zM287 559q0 -196 91.5 -315.5t242.5 -119.5q150 0 241.5 119.5t91.5 315.5q0 195 -91.5 314.5t-241.5 119.5t-242 -119.5t-92 -314.5z " />
<glyph unicode="p" horiz-adv-x="1232" d="M132 -434v1551h186v-194q58 99 110.5 140t118.5 63t136 22q128 0 234 -69.5t164.5 -207.5t58.5 -310q0 -254 -122.5 -423t-343.5 -169q-71 0 -134.5 20.5t-112.5 61t-109 144.5v-629h-186zM318 558q0 -190 82 -312t231 -122q136 0 226 108t90 323q0 251 -95 348.5 t-217 97.5q-88 0 -164.5 -53.5t-114.5 -159t-38 -230.5z" />
<glyph unicode="q" horiz-adv-x="1232" d="M93 556q0 255 123 423.5t343 168.5q72 0 135 -20.5t112.5 -61t108.5 -144.5v195h186v-1551h-186v628q-58 -99 -110 -140t-118.5 -63t-136.5 -22q-127 0 -233 69.5t-165 207.5t-59 310zM287 562q0 -251 95 -348.5t216 -97.5q89 0 165.5 54t114 159t37.5 230q0 190 -82 312 t-230 122q-136 0 -226 -108.5t-90 -322.5z" />
<glyph unicode="r" horiz-adv-x="791" d="M147 0v1117h186v-197q46 85 100.5 132t116 71.5t125.5 24.5q58 0 100 -17v-193q-66 32 -140 32q-105 0 -203.5 -92t-98.5 -326v-552h-186z" />
<glyph unicode="s" horiz-adv-x="1043" d="M78 291v4h186v-4q0 -72 55 -119.5t186 -47.5q115 0 186.5 56t71.5 132q0 103 -140 146l-95 29l-63 20l-129 40q-221 81 -221 269q0 132 107 232t318 100q208 0 296 -85.5t88 -189.5v-4h-187v4q0 56 -56.5 88t-150.5 32q-112 0 -171.5 -46.5t-59.5 -114.5 q0 -52 38.5 -84.5t129.5 -58.5l90 -25l65 -19q136 -38 169.5 -54.5t67.5 -41.5q47 -36 69.5 -87t22.5 -119q0 -158 -113.5 -266t-331.5 -108q-138 0 -229 41t-145 113.5t-54 167.5z" />
<glyph unicode="t" horiz-adv-x="908" d="M70 962v155h194v264h186v-264h326v-155h-326v-521q0 -148 23 -205.5t72.5 -84.5t118.5 -27q55 0 166 34v-156q-136 -34 -208 -33q-104 0 -187.5 42t-127 122t-43.5 255v574h-194z" />
<glyph unicode="u" horiz-adv-x="1195" d="M132 409v708h186v-630q0 -245 65 -296t161 -51q83 0 156.5 48.5t117 136t43.5 243.5v549h186v-1117h-186v195q-58 -90 -114 -135t-115 -68t-129 -23q-155 0 -263 87.5t-108 352.5z" />
<glyph unicode="v" horiz-adv-x="1156" d="M23 1117h200l358 -876l366 876h185l-468 -1117h-186z" />
<glyph unicode="w" horiz-adv-x="1598" d="M31 1117h195l197 -695l26 -166h21l29 166l199 695h187l222 -693l38 -168h20l29 168l197 693h176l-319 -1117h-188l-230 730l-31 162h-16l-33 -162l-211 -730h-189z" />
<glyph unicode="x" horiz-adv-x="1086" d="M54 0l388 565l-365 552h214l260 -393l269 393h192l-365 -533l384 -584h-215l-279 424l-289 -424h-194z" />
<glyph unicode="y" horiz-adv-x="1171" d="M31 1117h206l374 -830l350 830h187l-471 -1118q-94 -226 -158.5 -299.5t-136 -103.5t-190.5 -30h-140v155h105q78 0 135.5 20.5t96 65.5t103.5 198l19 43z" />
<glyph unicode="z" horiz-adv-x="1132" d="M116 0v155l663 807h-647v155h868v-155l-651 -807h675v-155h-908z" />
<glyph unicode="{" horiz-adv-x="923" d="M209 559v155h53q97 0 130.5 51t33.5 119q0 81 -22 172l-24 103q-24 101 -24 191q0 133 94 214t225 81h15v-156h-19q-55 0 -99.5 -44t-44.5 -131q0 -30 5 -50l11 -49l22 -120q24 -135 24 -182q0 -78 -48.5 -158t-160.5 -119q112 -39 160.5 -118.5t48.5 -158.5 q0 -46 -24 -182l-22 -120l-11 -48q-5 -25 -5 -51q0 -86 44 -130.5t100 -44.5h19v-155h-15q-131 0 -225 80.5t-94 214.5q0 90 24 190l24 103q22 92 22 173q0 67 -33.5 118.5t-130.5 51.5h-53z" />
<glyph unicode="|" horiz-adv-x="504" d="M171 -47v1645h163v-1645h-163z" />
<glyph unicode="}" horiz-adv-x="923" d="M233 -217h19q55 0 99.5 44t44.5 132q0 28 -5 50l-11 48l-22 120q-24 136 -24 182q0 79 48.5 158.5t160.5 118.5q-112 39 -160.5 118.5t-48.5 159.5q0 46 24 181l22 120l11 49q5 24 5 51q0 85 -44 129.5t-100 44.5h-19v156h15q131 0 225 -81t94 -215q0 -89 -24 -190 l-25 -103q-22 -91 -21 -172q0 -68 33.5 -119t130.5 -51h53v-155h-53q-97 0 -130.5 -51.5t-33.5 -119.5q0 -80 21 -172l25 -103q24 -100 24 -190q0 -134 -94 -214.5t-225 -80.5h-15v155z" />
<glyph unicode="~" d="M124 403v18q0 131 77.5 227.5t208.5 96.5q33 0 64.5 -6.5t71.5 -22t120 -60.5l121 -67q111 -61 181 -61q74 0 109.5 53.5t35.5 116.5v16h128v-16q0 -167 -94.5 -246.5t-200.5 -79.5q-99 0 -262 93l-102 59q-116 66 -187 66q-40 0 -74.5 -21t-55.5 -67t-21 -81v-18h-120z " />
<glyph unicode="&#xa0;" />
<glyph unicode="&#xa1;" horiz-adv-x="620" d="M186 -434l45 1162h153l50 -1162h-248zM215 930v188h187v-188h-187z" />
<glyph unicode="&#xa2;" d="M190 775q0 149 44 270.5t136.5 208.5t247.5 111v186h154v-186q139 -21 208.5 -63t109 -107.5t39.5 -128.5v-12h-187v12q0 108 -170 141v-866q94 19 132 66t38 87v11h187v-11q0 -87 -82 -182t-275 -122v-190h-154v190q-166 30 -249 105t-131 198.5t-48 281.5zM384 774 q0 -113 24.5 -194.5t71.5 -139.5t138 -90v854q-92 -30 -137 -86.5t-71 -142.5t-26 -201z" />
<glyph unicode="&#xa3;" d="M162 0v170q137 67 185 173t81 275l29 151h-210v153h242l46 240q35 175 84.5 258t126.5 130.5t183 47.5q46 0 91.5 -8t127.5 -52v-159q-114 48 -196 48q-70 0 -112 -28.5t-68 -93t-57 -214.5l-35 -169h330v-153h-360l-28 -135q-19 -94 -50.5 -191t-65 -151t-111.5 -122 h753v-170h-986z" />
<glyph unicode="&#xa4;" d="M85 280l185 185q-70 109 -85 171.5t-15 129.5q0 68 15.5 132t84.5 172l-185 185l109 111l185 -186q108 67 171 83t133 16t133 -16t170 -83l184 186l112 -111l-186 -185q70 -109 84 -172.5t14 -131.5q0 -67 -14 -129.5t-84 -171.5l186 -185l-112 -110l-184 185 q-110 -69 -173 -84.5t-130 -15.5t-130 15.5t-174 84.5l-185 -185zM326 766q0 -146 104.5 -250.5t252.5 -104.5t252.5 105t104.5 250q0 97 -47 180t-131.5 131.5t-178.5 48.5t-178 -48.5t-131.5 -131.5t-47.5 -180z" />
<glyph unicode="&#xa5;" d="M74 1551h209l427 -672l403 672h180l-491 -823h368v-146h-380v-187h380v-140h-380v-255h-185v255h-390v140h390v187h-390v146h376z" />
<glyph unicode="&#xa6;" horiz-adv-x="504" d="M170 -46v729h164v-729h-164zM170 870v728h164v-728h-164z" />
<glyph unicode="&#xa7;" d="M137 13v9h201v-9q0 -75 36.5 -127t120 -77.5t182.5 -25.5q159 0 234.5 67t75.5 144q0 34 -15 64.5t-46 54.5q-62 50 -252 141l-216 104q-156 74 -208 155q-53 78 -52 161q0 75 45 152t109 124q-77 59 -115.5 128.5t-38.5 149.5q0 162 135 266t376 104q237 0 336.5 -89.5 t99.5 -210.5v-10h-201v10q0 74 -75 109.5t-189 35.5q-126 0 -207 -50.5t-81 -138.5q0 -70 60 -125q59 -57 193 -119l185 -88q191 -88 269 -168t78 -193q0 -150 -169 -281q110 -78 139.5 -140t29.5 -134q0 -108 -56.5 -190t-161 -134.5t-282.5 -52.5q-328 0 -434 120.5 t-106 263.5zM392 702q0 -56 34 -98t174 -109l290 -140q92 74 92 158q0 61 -43.5 115t-194.5 126l-263 125q-65 -54 -77 -98t-12 -79z" />
<glyph unicode="&#xa8;" horiz-adv-x="1210" d="M296 1288v186h185v-186h-185zM728 1288v186h188v-186h-188z" />
<glyph unicode="&#xa9;" horiz-adv-x="1800" d="M78 775q0 220 110 412t302.5 301.5t409.5 109.5q218 0 410.5 -109.5t302.5 -301.5t110 -412q0 -224 -114 -416.5t-303.5 -298.5t-405.5 -106q-217 0 -405.5 106t-302.5 298.5t-114 416.5zM202 775q0 -192 96.5 -354.5t256.5 -252.5t345 -90q183 0 344 90t258 252.5 t96 354.5q0 186 -93.5 349.5t-256.5 256.5t-348 93t-349 -93t-256.5 -256.5t-92.5 -349.5zM458 786q0 204 119 361t364 157q154 0 290 -50v-138q-135 62 -263 62q-146 0 -242.5 -94.5t-96.5 -301.5q0 -203 97 -303t255 -100q110 0 250 59v-137q-114 -54 -279 -54 q-151 0 -260 63.5t-171.5 194.5t-62.5 281z" />
<glyph unicode="&#xaa;" horiz-adv-x="683" d="M62 1075q0 97 80 152t286 93l53 10v68q0 50 -33.5 76t-100.5 26q-66 0 -103 -27.5t-37 -72.5v-10h-137v10q0 54 39 100t103.5 72.5t139.5 26.5q76 0 137.5 -24t90 -64t28.5 -146v-256q0 -120 29 -204h-137q-16 50 -18 82q-53 -50 -106.5 -75t-111.5 -25q-82 0 -142 51 t-60 137zM198 1072q0 -45 34.5 -65.5t68.5 -20.5q53 0 116.5 45.5t63.5 148.5v56l-24 -6q-161 -38 -210 -73.5t-49 -84.5z" />
<glyph unicode="&#xab;" horiz-adv-x="1094" d="M85 481v156l334 357h161l-303 -440l303 -430h-169zM519 481v156l335 357h162l-306 -440l306 -430h-170z" />
<glyph unicode="&#xac;" d="M124 481v156h1117v-483h-155v327h-962z" />
<glyph unicode="&#xad;" horiz-adv-x="776" d="M78 551v155h621v-155h-621z" />
<glyph unicode="&#xae;" horiz-adv-x="1800" d="M78 775q0 220 110 412t302.5 301.5t409.5 109.5q218 0 410.5 -109.5t302.5 -301.5t110 -412q0 -224 -114 -416.5t-303.5 -298.5t-405.5 -106q-217 0 -405.5 106t-302.5 298.5t-114 416.5zM202 775q0 -192 96.5 -354.5t256.5 -252.5t345 -90q183 0 344 90t258 252.5 t96 354.5q0 186 -93.5 349.5t-256.5 256.5t-348 93t-349 -93t-256.5 -256.5t-92.5 -349.5zM585 264v1015h323q118 0 179 -34.5t95.5 -98t34.5 -138.5q0 -87 -49 -166t-150 -122q53 -34 114 -145l167 -311h-181l-140 265l-32 62q-57 100 -83 100h-119v-427h-159zM744 814h111 q111 0 153.5 57.5t42.5 126.5q0 43 -16.5 78t-50.5 58.5t-118 23.5h-122v-344z" />
<glyph unicode="&#xaf;" horiz-adv-x="1210" d="M326 1288v123h560v-123h-560z" />
<glyph unicode="&#xb0;" horiz-adv-x="697" d="M78 1326q0 112 80.5 192t191.5 80t191 -80t80 -192q0 -111 -79 -191.5t-192 -80.5q-114 0 -193 80.5t-79 191.5zM170 1326q0 -71 52 -124.5t128 -53.5q74 0 125.5 53.5t51.5 124.5q0 72 -52.5 125.5t-124.5 53.5q-74 0 -127 -53.5t-53 -125.5z" />
<glyph unicode="&#xb1;" d="M124 0v154h1117v-154h-1117zM124 791v155h481v481h155v-481h481v-155h-481v-481h-155v481h-481z" />
<glyph unicode="&#xb2;" horiz-adv-x="821" d="M85 645v115q0 65 48.5 159t159.5 174l62 47l59 45q92 70 110.5 105.5t18.5 69.5q0 46 -41.5 80t-119.5 34q-66 0 -100.5 -22t-34.5 -47v-24h-139v25q0 63 69.5 127.5t211.5 64.5q167 0 238 -70t71 -163q0 -51 -22.5 -102t-85.5 -104t-108 -84l-44 -29 q-208 -138 -208 -264v-5h484v-132h-629z" />
<glyph unicode="&#xb3;" horiz-adv-x="821" d="M113 815v23h131v-23q0 -22 28.5 -46.5t116.5 -24.5q105 0 143 55.5t38 116.5q0 71 -62 124.5t-202 53.5h-62v124h73q78 0 121 22.5t68.5 56.5t27.5 69q0 40 -32 74t-113 34q-75 0 -110 -26t-35 -53v-22h-123v22q0 51 39 99.5t106 76t142 27.5q116 0 194 -55.5t78 -155.5 q0 -54 -25 -107.5t-129 -110.5q127 -60 159.5 -120t32.5 -131q0 -114 -84 -205.5t-255 -91.5q-118 0 -192 54t-74 140z" />
<glyph unicode="&#xb4;" horiz-adv-x="1210" d="M349 1288l296 326h217l-343 -326h-170z" />
<glyph unicode="&#xb5;" horiz-adv-x="1210" d="M-51 -371l298 1489h186l-127 -636q-22 -114 -23 -172q0 -90 50.5 -130t124.5 -40q90 0 171 47t143 135t94 248l110 548h186l-223 -1118h-187l39 191q-114 -124 -208 -172.5t-183 -48.5q-112 0 -183 67l-82 -408h-186z" />
<glyph unicode="&#xb6;" d="M102 1104q0 118 63 228.5t185.5 164.5t361.5 54h608v-156h-164v-1766h-154v1766h-217v-1766h-156v1046q-234 0 -380.5 126t-146.5 303z" />
<glyph unicode="&#xb7;" d="M551 428v262h264v-262h-264z" />
<glyph unicode="&#xb8;" horiz-adv-x="1210" d="M434 -318q58 -30 119 -31q35 0 63.5 21t28.5 43q0 70 -187 87l109 198h108l-73 -130q107 -22 140 -66.5t33 -93.5q0 -54 -44.5 -100t-137.5 -46q-83 0 -159 30v88z" />
<glyph unicode="&#xb9;" horiz-adv-x="821" d="M167 1352v134l193 89h140v-930h-140v779z" />
<glyph unicode="&#xba;" horiz-adv-x="760" d="M56 1242q0 177 95.5 266.5t227.5 89.5q134 0 230.5 -89.5t96.5 -266.5q0 -178 -96.5 -266.5t-230.5 -88.5q-130 0 -226.5 88.5t-96.5 266.5zM188 1242q0 -110 52.5 -179t138.5 -69q89 0 141 69t52 179q0 111 -52 180.5t-141 69.5q-86 0 -138.5 -69.5t-52.5 -180.5z" />
<glyph unicode="&#xbb;" horiz-adv-x="1094" d="M78 124l306 438l-306 432h169l327 -357v-156l-335 -357h-161zM513 124l305 438l-305 432h170l327 -357v-156l-336 -357h-161z" />
<glyph unicode="&#xbc;" horiz-adv-x="1853" d="M121 1322v132l193 89h140v-930h-140v781zM178 -78l1182 1645h177l-1159 -1645h-200zM1013 239v115l457 546h132v-535h132v-126h-132v-269h-140v269h-449zM1185 365h277v333z" />
<glyph unicode="&#xbd;" horiz-adv-x="1853" d="M89 1352v134l193 89h140v-930h-140v779zM146 -46l1184 1644h175l-1159 -1644h-200zM1137 0v116q0 66 48 159t157 174l64 48l60 45q91 71 109.5 105.5t18.5 67.5q0 46 -42 80.5t-118 34.5q-67 0 -101 -21t-34 -49v-24h-138v26q0 65 69 128.5t210 63.5q167 0 238 -70 t71 -162q0 -51 -21.5 -103t-85.5 -104.5t-108 -81.5l-45 -31q-207 -136 -207 -264v-6h483v-132h-628z" />
<glyph unicode="&#xbe;" horiz-adv-x="1853" d="M74 815v23h132v-23q0 -22 28 -46.5t116 -24.5q103 0 142.5 55.5t39.5 116.5q0 71 -63.5 124.5t-202.5 53.5h-60v124h72q77 0 120 22.5t69.5 56.5t26.5 69q0 40 -32 74t-112 34q-75 0 -109.5 -26t-34.5 -53v-22h-124v22q0 51 39.5 99.5t104.5 76t144 27.5q116 0 193 -55.5 t77 -155.5q0 -54 -24.5 -107.5t-129.5 -110.5q127 -60 159.5 -120t32.5 -131q0 -114 -84 -205.5t-253 -91.5q-119 0 -193 54t-74 140zM226 -78l1180 1645h177l-1159 -1645h-198zM1059 239v115l459 546h132v-535h131v-126h-131v-269h-140v269h-451zM1231 365h279v333z" />
<glyph unicode="&#xbf;" horiz-adv-x="1164" d="M186 -145q0 48 22.5 121.5t137.5 181.5l70 64q70 66 114.5 137.5t44.5 226.5v136h185v-95q0 -162 -51 -265.5t-109 -167.5l-79 -84q-77 -84 -109.5 -136t-32.5 -103q0 -85 77.5 -141t188.5 -56q94 0 147.5 35.5t53.5 108.5v12h194v-12q0 -69 -53 -142.5t-150.5 -115 t-210.5 -41.5q-121 0 -224.5 46t-159.5 125t-56 165zM575 930v188h185v-188h-185z" />
<glyph unicode="&#xc0;" horiz-adv-x="1488" d="M30 0l637 1551h204l587 -1551h-219l-161 428h-684l-176 -428h-188zM288 1924h325l309 -202h-239zM455 582h564l-272 722z" />
<glyph unicode="&#xc1;" horiz-adv-x="1488" d="M30 0l637 1551h204l587 -1551h-219l-161 428h-684l-176 -428h-188zM455 582h564l-272 722zM528 1722l310 202h326l-397 -202h-239z" />
<glyph unicode="&#xc2;" horiz-adv-x="1488" d="M30 0l637 1551h204l587 -1551h-219l-161 428h-684l-176 -428h-188zM401 1722l294 202h124l295 -202h-218l-140 62l-138 -62h-217zM455 582h564l-272 722z" />
<glyph unicode="&#xc3;" horiz-adv-x="1488" d="M30 0l637 1551h204l587 -1551h-219l-161 428h-684l-176 -428h-188zM414 1722q10 69 45 115.5t73.5 66.5t90.5 20q62 0 128 -22l99 -32q61 -21 89 -21q30 0 50 12.5t36 62.5h124q-21 -107 -84.5 -154.5t-133.5 -47.5q-43 0 -133 33l-68 26l-24 9q-50 18 -80 19 q-20 0 -50 -15t-38 -72h-124zM455 582h564l-272 722z" />
<glyph unicode="&#xc4;" horiz-adv-x="1488" d="M30 0l637 1551h204l587 -1551h-219l-161 428h-684l-176 -428h-188zM450 1722v186h187v-186h-187zM455 582h564l-272 722zM884 1722v186h186v-186h-186z" />
<glyph unicode="&#xc5;" horiz-adv-x="1488" d="M30 0l637 1551q-42 30 -63.5 69t-21.5 87q0 75 54 131t133 56q75 0 130 -56t55 -131q0 -46 -20.5 -85t-62.5 -71l587 -1551h-219l-161 428h-684l-176 -428h-188zM455 582h564l-272 722zM675 1707q0 -38 26.5 -65.5t67.5 -27.5q37 0 65 27.5t28 65.5t-28 66t-65 28 q-41 0 -67.5 -28.5t-26.5 -65.5z" />
<glyph unicode="&#xc6;" horiz-adv-x="2032" d="M0 0l1002 1551h876v-170h-676v-489h591v-156h-591v-566h730v-170h-930v428h-516l-280 -428h-206zM583 582h419v644z" />
<glyph unicode="&#xc7;" horiz-adv-x="1334" d="M94 747q0 307 79 480t230 272.5t363 99.5q145 0 254.5 -44.5t173 -139.5t63.5 -187v-10h-187v10q0 60 -36 111t-102 77.5t-158 26.5q-238 0 -355 -188t-117 -478q0 -294 116.5 -481.5t353.5 -187.5q162 0 230 67t68 150v9h187v-9q0 -82 -54.5 -173t-150 -139t-275.5 -59 l-46 -84q106 -22 139 -66.5t33 -93.5q0 -54 -43 -100t-138 -46q-82 0 -160 30v88q58 -30 120 -31q35 0 62.5 21t27.5 43q0 70 -186 87l84 152q-193 22 -324.5 133.5t-191.5 261t-60 398.5z" />
<glyph unicode="&#xc8;" horiz-adv-x="1178" d="M146 0v1551h878v-170h-675v-489h590v-156h-590v-566h729v-170h-932zM154 1924h327l310 -202h-240z" />
<glyph unicode="&#xc9;" horiz-adv-x="1178" d="M146 0v1551h878v-170h-675v-489h590v-156h-590v-566h729v-170h-932zM334 1722l309 202h327l-396 -202h-240z" />
<glyph unicode="&#xca;" horiz-adv-x="1178" d="M146 0v1551h878v-170h-675v-489h590v-156h-590v-566h729v-170h-932zM268 1722l294 202h124l296 -202h-217l-140 62l-140 -62h-217z" />
<glyph unicode="&#xcb;" horiz-adv-x="1178" d="M146 0v1551h878v-170h-675v-489h590v-156h-590v-566h729v-170h-932zM294 1722v186h187v-186h-187zM728 1722v186h186v-186h-186z" />
<glyph unicode="&#xcc;" horiz-adv-x="496" d="M-129 1924h327l310 -202h-242zM146 0v1551h203v-1551h-203z" />
<glyph unicode="&#xcd;" horiz-adv-x="496" d="M-32 1722l310 202h327l-395 -202h-242zM146 0v1551h203v-1551h-203z" />
<glyph unicode="&#xce;" horiz-adv-x="496" d="M-98 1722l295 202h124l296 -202h-218l-139 62l-140 -62h-218zM146 0v1551h203v-1551h-203z" />
<glyph unicode="&#xcf;" horiz-adv-x="496" d="M-70 1722v186h186v-186h-186zM146 0v1551h203v-1551h-203zM363 1722v186h187v-186h-187z" />
<glyph unicode="&#xd0;" horiz-adv-x="1435" d="M-38 714v156h184v681h429q315 0 460 -84.5t226 -258.5t81 -426q0 -235 -74 -407.5t-222 -273.5t-441 -101h-459v714h-184zM349 170h237q214 0 323 63t166 196t57 336t-52.5 348t-160 213.5t-336.5 68.5h-234v-525h280v-156h-280v-544z" />
<glyph unicode="&#xd1;" horiz-adv-x="1452" d="M146 0v1551h201l709 -1102l65 -123l-3 123v1102h186v-1551h-200l-710 1107l-64 126l3 -126v-1107h-187zM370 1722q8 69 44 115.5t75 66.5t90 20q62 0 127 -22l100 -32q61 -21 88 -21q30 0 51 12.5t37 62.5h122q-20 -107 -83 -154.5t-135 -47.5q-43 0 -132 33l-67 26 l-25 9q-50 18 -80 19q-19 0 -49.5 -15t-39.5 -72h-123z" />
<glyph unicode="&#xd2;" horiz-adv-x="1504" d="M94 777q0 394 184 607.5t474 213.5q291 0 475 -214t184 -607q0 -396 -184 -609.5t-475 -213.5q-290 0 -474 213.5t-184 609.5zM296 1924h325l309 -202h-239zM302 777q0 -302 120 -484.5t330 -182.5q213 0 331.5 182t118.5 485q0 300 -118.5 483t-331.5 183 q-210 0 -330 -183t-120 -483z" />
<glyph unicode="&#xd3;" horiz-adv-x="1504" d="M94 777q0 394 184 607.5t474 213.5q291 0 475 -214t184 -607q0 -396 -184 -609.5t-475 -213.5q-290 0 -474 213.5t-184 609.5zM302 777q0 -302 120 -484.5t330 -182.5q213 0 331.5 182t118.5 485q0 300 -118.5 483t-331.5 183q-210 0 -330 -183t-120 -483zM473 1722 l310 202h327l-396 -202h-241z" />
<glyph unicode="&#xd4;" horiz-adv-x="1504" d="M94 777q0 394 184 607.5t474 213.5q291 0 475 -214t184 -607q0 -396 -184 -609.5t-475 -213.5q-290 0 -474 213.5t-184 609.5zM302 777q0 -302 120 -484.5t330 -182.5q213 0 331.5 182t118.5 485q0 300 -118.5 483t-331.5 183q-210 0 -330 -183t-120 -483zM407 1722 l295 202h124l296 -202h-218l-139 62l-140 -62h-218z" />
<glyph unicode="&#xd5;" horiz-adv-x="1504" d="M94 777q0 394 184 607.5t474 213.5q291 0 475 -214t184 -607q0 -396 -184 -609.5t-475 -213.5q-290 0 -474 213.5t-184 609.5zM302 777q0 -302 120 -484.5t330 -182.5q213 0 331.5 182t118.5 485q0 300 -118.5 483t-331.5 183q-210 0 -330 -183t-120 -483zM398 1722 q10 69 45 115.5t73.5 66.5t90.5 20q62 0 128 -22l99 -32q61 -21 89 -21q30 0 50 12.5t36 62.5h124q-21 -107 -84.5 -154.5t-133.5 -47.5q-43 0 -133 33l-68 26l-24 9q-50 18 -80 19q-19 0 -49.5 -15t-38.5 -72h-124z" />
<glyph unicode="&#xd6;" horiz-adv-x="1504" d="M94 777q0 394 184 607.5t474 213.5q291 0 475 -214t184 -607q0 -396 -184 -609.5t-475 -213.5q-290 0 -474 213.5t-184 609.5zM302 777q0 -302 120 -484.5t330 -182.5q213 0 331.5 182t118.5 485q0 300 -118.5 483t-331.5 183q-210 0 -330 -183t-120 -483zM433 1722v186 h186v-186h-186zM866 1722v186h188v-186h-188z" />
<glyph unicode="&#xd7;" d="M124 116l445 443l-445 452l110 107l449 -448l438 448l120 -100l-453 -459l453 -451l-115 -108l-443 450l-457 -450z" />
<glyph unicode="&#xd8;" horiz-adv-x="1504" d="M94 -46l158 244q-102 143 -130 292.5t-28 305.5q0 368 183 585t481 217q208 0 374 -127l90 127h189l-164 -241q98 -134 131 -275t33 -310q0 -278 -83.5 -452t-229.5 -270t-344 -96q-226 0 -391 126l-86 -126h-183zM294 788q0 -89 13 -186t67 -229l658 952 q-90 82 -164.5 100t-125.5 18q-207 0 -327.5 -180.5t-120.5 -474.5zM468 231q117 -122 282 -121q216 0 334 183t118 489q0 231 -76 400z" />
<glyph unicode="&#xd9;" d="M124 527v1024h202v-997q0 -218 42.5 -293t132.5 -113t201 -38q106 0 189 38t123 122.5t40 355.5v925h187v-979q0 -271 -62.5 -381.5t-181 -173.5t-296.5 -63q-166 0 -304 50t-205.5 158t-67.5 365zM305 1924h326l311 -202h-241z" />
<glyph unicode="&#xda;" d="M124 527v1024h202v-997q0 -218 42.5 -293t132.5 -113t201 -38q106 0 189 38t123 122.5t40 355.5v925h187v-979q0 -271 -62.5 -381.5t-181 -173.5t-296.5 -63q-166 0 -304 50t-205.5 158t-67.5 365zM430 1722l311 202h326l-397 -202h-240z" />
<glyph unicode="&#xdb;" d="M124 527v1024h202v-997q0 -218 42.5 -293t132.5 -113t201 -38q106 0 189 38t123 122.5t40 355.5v925h187v-979q0 -271 -62.5 -381.5t-181 -173.5t-296.5 -63q-166 0 -304 50t-205.5 158t-67.5 365zM338 1722l295 202h123l294 -202h-216l-140 62l-139 -62h-217z" />
<glyph unicode="&#xdc;" d="M124 527v1024h202v-997q0 -218 42.5 -293t132.5 -113t201 -38q106 0 189 38t123 122.5t40 355.5v925h187v-979q0 -271 -62.5 -381.5t-181 -173.5t-296.5 -63q-166 0 -304 50t-205.5 158t-67.5 365zM363 1722v186h187v-186h-187zM798 1722v186h188v-186h-188z" />
<glyph unicode="&#xdd;" horiz-adv-x="1248" d="M22 1551h236l388 -627l383 627h196l-499 -820v-731h-200v731zM364 1722l310 202h327l-395 -202h-242z" />
<glyph unicode="&#xde;" horiz-adv-x="1194" d="M146 0v1551h203v-280h229q248 0 349.5 -50.5t153 -146.5t51.5 -227q0 -217 -149 -365t-441 -148h-193v-334h-203zM349 489h137q266 0 351 102.5t85 246.5q0 126 -68 203t-271 77h-234v-629z" />
<glyph unicode="&#xdf;" horiz-adv-x="1210" d="M146 0v1150q0 177 50.5 270.5t139 143.5t217.5 50q154 0 265.5 -66.5t111.5 -200.5q0 -76 -37.5 -139t-96.5 -126l-46 -47q-83 -86 -83 -130q0 -61 126 -155l41 -32l56 -41l78 -61q180 -148 180 -318q0 -138 -95 -233t-275 -95q-146 0 -259 41v172q89 -38 166.5 -48.5 t107.5 -10.5q61 0 111 38.5t50 111.5q0 59 -36.5 114.5t-170.5 159.5l-56 43q-22 18 -43 35q-119 90 -147 139t-28 101q0 84 88 184q22 26 29 32l55 63q91 110 91 181q0 51 -54.5 92.5t-133.5 41.5q-90 0 -152.5 -57t-62.5 -236v-1167h-187z" />
<glyph unicode="&#xe0;" horiz-adv-x="1133" d="M110 275q0 162 134 250t463 152l100 19v126q0 102 -69 144t-166 42q-115 0 -180.5 -51t-65.5 -119v-16h-202v16q0 74 62.5 152.5t166.5 119t225 40.5q122 0 222 -39t147 -103t47 -242v-433q0 -72 3 -150t35 -183h-196q-29 90 -29 154q-122 -121 -208 -152.5t-166 -31.5 q-132 0 -227.5 81t-95.5 224zM310 272q0 -46 23.5 -83.5t69.5 -58t91 -20.5q78 0 153.5 44.5t117.5 121t42 178.5v110l-57 -14q-282 -69 -361 -131t-79 -147zM354 1614h215l296 -326h-171z" />
<glyph unicode="&#xe1;" horiz-adv-x="1133" d="M110 275q0 162 134 250t463 152l100 19v126q0 102 -69 144t-166 42q-115 0 -180.5 -51t-65.5 -119v-16h-202v16q0 74 62.5 152.5t166.5 119t225 40.5q122 0 222 -39t147 -103t47 -242v-433q0 -72 3 -150t35 -183h-196q-29 90 -29 154q-122 -121 -208 -152.5t-166 -31.5 q-132 0 -227.5 81t-95.5 224zM310 272q0 -46 23.5 -83.5t69.5 -58t91 -20.5q78 0 153.5 44.5t117.5 121t42 178.5v110l-57 -14q-282 -69 -361 -131t-79 -147zM384 1288l296 326h215l-341 -326h-170z" />
<glyph unicode="&#xe2;" horiz-adv-x="1133" d="M110 275q0 162 134 250t463 152l100 19v126q0 102 -69 144t-166 42q-115 0 -180.5 -51t-65.5 -119v-16h-202v16q0 74 62.5 152.5t166.5 119t225 40.5q122 0 222 -39t147 -103t47 -242v-433q0 -72 3 -150t35 -183h-196q-29 90 -29 154q-122 -121 -208 -152.5t-166 -31.5 q-132 0 -227.5 81t-95.5 224zM291 1288l233 326h124l233 -326h-156l-139 169l-140 -169h-155zM310 272q0 -46 23.5 -83.5t69.5 -58t91 -20.5q78 0 153.5 44.5t117.5 121t42 178.5v110l-57 -14q-282 -69 -361 -131t-79 -147z" />
<glyph unicode="&#xe3;" horiz-adv-x="1133" d="M110 275q0 162 134 250t463 152l100 19v126q0 102 -69 144t-166 42q-115 0 -180.5 -51t-65.5 -119v-16h-202v16q0 74 62.5 152.5t166.5 119t225 40.5q122 0 222 -39t147 -103t47 -242v-433q0 -72 3 -150t35 -183h-196q-29 90 -29 154q-122 -121 -208 -152.5t-166 -31.5 q-132 0 -227.5 81t-95.5 224zM244 1288q0 131 51.5 193t128.5 62q63 0 127 -38l42 -26q84 -52 116 -52q60 0 60 116h126q-5 -102 -25.5 -148t-65 -76.5t-95.5 -30.5q-67 0 -142 48l-43 29q-59 38 -83 38q-71 0 -71 -115h-126zM310 272q0 -46 23.5 -83.5t69.5 -58t91 -20.5 q78 0 153.5 44.5t117.5 121t42 178.5v110l-57 -14q-282 -69 -361 -131t-79 -147z" />
<glyph unicode="&#xe4;" horiz-adv-x="1133" d="M110 275q0 162 134 250t463 152l100 19v126q0 102 -69 144t-166 42q-115 0 -180.5 -51t-65.5 -119v-16h-202v16q0 74 62.5 152.5t166.5 119t225 40.5q122 0 222 -39t147 -103t47 -242v-433q0 -72 3 -150t35 -183h-196q-29 90 -29 154q-122 -121 -208 -152.5t-166 -31.5 q-132 0 -227.5 81t-95.5 224zM261 1288v186h185v-186h-185zM310 272q0 -46 23.5 -83.5t69.5 -58t91 -20.5q78 0 153.5 44.5t117.5 121t42 178.5v110l-57 -14q-282 -69 -361 -131t-79 -147zM694 1288v186h187v-186h-187z" />
<glyph unicode="&#xe5;" horiz-adv-x="1133" d="M110 275q0 162 134 250t463 152l100 19v126q0 102 -69 144t-166 42q-115 0 -180.5 -51t-65.5 -119v-16h-202v16q0 74 62.5 152.5t166.5 119t225 40.5q122 0 222 -39t147 -103t47 -242v-433q0 -72 3 -150t35 -183h-196q-29 90 -29 154q-122 -121 -208 -152.5t-166 -31.5 q-132 0 -227.5 81t-95.5 224zM310 272q0 -46 23.5 -83.5t69.5 -58t91 -20.5q78 0 153.5 44.5t117.5 121t42 178.5v110l-57 -14q-282 -69 -361 -131t-79 -147zM384 1474q0 75 55 131t131 56q78 0 131.5 -55.5t53.5 -131.5q0 -74 -53.5 -130t-131.5 -56t-132 56t-54 130z M478 1474q0 -39 27 -66t65 -27q39 0 65.5 27t26.5 66q0 38 -26 65.5t-66 27.5q-38 0 -65 -27.5t-27 -65.5z" />
<glyph unicode="&#xe6;" horiz-adv-x="1901" d="M110 275q0 91 44.5 160.5t157 124t398.5 115.5l120 24v47q0 158 -72 211t-180 53q-122 0 -187 -52t-65 -120v-16h-200v14q0 75 60.5 150.5t165.5 118.5t220 43q110 0 215 -39.5t175 -164.5q46 82 98.5 121t125 61t153.5 22q198 0 326 -130.5t128 -421.5v-61h-793l-2 -35 q0 -140 98 -258t267 -118q129 0 182 55t53 98v11h195v-11q0 -73 -62 -151t-163.5 -117t-213.5 -39q-124 0 -244.5 51t-196.5 213q-101 -146 -215.5 -205t-247.5 -59q-158 0 -249 85t-91 220zM318 270q0 -81 61.5 -120.5t130.5 -39.5q77 0 157 51t121.5 146.5t41.5 208.5v50 l-70 -18q-231 -59 -303.5 -95.5t-105.5 -84t-33 -98.5zM1013 675h601v24q0 67 -38.5 145t-108 114t-147.5 36q-110 0 -198 -88.5t-109 -230.5z" />
<glyph unicode="&#xe7;" horiz-adv-x="1117" d="M94 543q0 299 135.5 452t378.5 153q128 0 219.5 -40.5t148 -117t56.5 -149.5v-11h-186v11q0 59 -58 106t-170 47q-140 0 -235 -103t-95 -332q0 -230 95 -332.5t235 -102.5q112 0 170 45.5t58 107.5v11h184v-11q0 -71 -50 -143t-132 -113.5t-203 -49.5l-59 -101 q108 -22 141 -66.5t33 -93.5q0 -54 -44 -100t-138 -46q-83 0 -159 30v88q58 -30 119 -31q34 0 62.5 21t28.5 43q0 70 -185 87l91 169q-217 32 -329 170.5t-112 401.5z" />
<glyph unicode="&#xe8;" horiz-adv-x="1178" d="M108 551q0 258 146 427.5t378 169.5q126 0 229.5 -55t163.5 -171t60 -326v-61h-792q0 -180 96.5 -295.5t266.5 -115.5q124 0 180 47t56 106v11h186v-11q0 -74 -59 -151.5t-156 -116.5t-223 -39q-256 0 -394 164.5t-138 416.5zM304 675h602v23q0 78 -36.5 151t-103.5 109 t-153 36q-105 0 -192.5 -84t-116.5 -235zM381 1614h215l298 -326h-171z" />
<glyph unicode="&#xe9;" horiz-adv-x="1178" d="M108 551q0 258 146 427.5t378 169.5q126 0 229.5 -55t163.5 -171t60 -326v-61h-792q0 -180 96.5 -295.5t266.5 -115.5q124 0 180 47t56 106v11h186v-11q0 -74 -59 -151.5t-156 -116.5t-223 -39q-256 0 -394 164.5t-138 416.5zM304 675h602v23q0 78 -36.5 151t-103.5 109 t-153 36q-105 0 -192.5 -84t-116.5 -235zM411 1288l296 326h217l-342 -326h-171z" />
<glyph unicode="&#xea;" horiz-adv-x="1178" d="M108 551q0 258 146 427.5t378 169.5q126 0 229.5 -55t163.5 -171t60 -326v-61h-792q0 -180 96.5 -295.5t266.5 -115.5q124 0 180 47t56 106v11h186v-11q0 -74 -59 -151.5t-156 -116.5t-223 -39q-256 0 -394 164.5t-138 416.5zM302 1288l233 326h126l233 -326h-158 l-138 169l-140 -169h-156zM304 675h602v23q0 78 -36.5 151t-103.5 109t-153 36q-105 0 -192.5 -84t-116.5 -235z" />
<glyph unicode="&#xeb;" horiz-adv-x="1178" d="M108 551q0 258 146 427.5t378 169.5q126 0 229.5 -55t163.5 -171t60 -326v-61h-792q0 -180 96.5 -295.5t266.5 -115.5q124 0 180 47t56 106v11h186v-11q0 -74 -59 -151.5t-156 -116.5t-223 -39q-256 0 -394 164.5t-138 416.5zM288 1288v186h186v-186h-186zM304 675h602 v23q0 78 -36.5 151t-103.5 109t-153 36q-105 0 -192.5 -84t-116.5 -235zM722 1288v186h186v-186h-186z" />
<glyph unicode="&#xec;" horiz-adv-x="480" d="M22 1614h217l296 -326h-170zM146 0v1118h187v-1118h-187z" />
<glyph unicode="&#xed;" horiz-adv-x="480" d="M22 1288l296 326h217l-342 -326h-171zM146 0v1118h187v-1118h-187z" />
<glyph unicode="&#xee;" horiz-adv-x="480" d="M-54 1288l232 326h124l233 -326h-156l-138 169l-139 -169h-156zM148 0v1118h186v-1118h-186z" />
<glyph unicode="&#xef;" horiz-adv-x="480" d="M-70 1288v186h186v-186h-186zM146 0v1118h187v-1118h-187zM363 1288v186h188v-186h-188z" />
<glyph unicode="&#xf0;" horiz-adv-x="1218" d="M78 535q0 167 66 290.5t188 192t256 68.5q57 0 119.5 -13.5t170.5 -82.5q-38 98 -97 181t-179 173l-226 -204l-102 117l180 161q-127 41 -266 40h-26v156h36q119 0 210.5 -11.5t193.5 -52.5l215 194l102 -115l-178 -161q150 -121 229.5 -247.5t121.5 -287.5t42 -320 q0 -294 -138.5 -468.5t-392.5 -174.5q-237 0 -381 158t-144 407zM272 527q0 -177 93 -290t241 -113q146 0 239.5 113t93.5 290t-93.5 290t-239.5 113q-148 0 -241 -113t-93 -290z" />
<glyph unicode="&#xf1;" horiz-adv-x="1194" d="M146 0v1118h187v-194q59 90 114.5 134t116 67t134.5 23q106 0 189 -43t129 -126.5t46 -268.5v-710h-186v632q0 150 -20 212t-78 98t-125 36q-82 0 -156.5 -48.5t-119 -134.5t-44.5 -245v-550h-187zM280 1288q0 131 51 193t129 62q62 0 126 -38l43 -26q82 -52 115 -52 q60 0 60 116h126q-6 -102 -27 -148t-64 -76.5t-95 -30.5q-67 0 -141 48l-44 29q-59 38 -85 38q-71 0 -71 -115h-123z" />
<glyph unicode="&#xf2;" horiz-adv-x="1240" d="M94 559q0 291 154 440t373 149q218 0 372.5 -149t154.5 -440q0 -294 -154.5 -441.5t-372.5 -147.5q-219 0 -373 147.5t-154 441.5zM288 559q0 -196 91 -315.5t242 -119.5t242 119.5t91 315.5q0 194 -91 314.5t-242 120.5t-242 -120.5t-91 -314.5zM403 1614h216l295 -326 h-170z" />
<glyph unicode="&#xf3;" horiz-adv-x="1240" d="M94 559q0 291 154 440t373 149q218 0 372.5 -149t154.5 -440q0 -294 -154.5 -441.5t-372.5 -147.5q-219 0 -373 147.5t-154 441.5zM288 559q0 -196 91 -315.5t242 -119.5t242 119.5t91 315.5q0 194 -91 314.5t-242 120.5t-242 -120.5t-91 -314.5zM434 1288l296 326h216 l-341 -326h-171z" />
<glyph unicode="&#xf4;" horiz-adv-x="1240" d="M94 559q0 291 154 440t373 149q218 0 372.5 -149t154.5 -440q0 -294 -154.5 -441.5t-372.5 -147.5q-219 0 -373 147.5t-154 441.5zM288 559q0 -196 91 -315.5t242 -119.5t242 119.5t91 315.5q0 194 -91 314.5t-242 120.5t-242 -120.5t-91 -314.5zM326 1288l233 326h124 l233 -326h-156l-139 169l-140 -169h-155z" />
<glyph unicode="&#xf5;" horiz-adv-x="1240" d="M94 559q0 291 154 440t373 149q218 0 372.5 -149t154.5 -440q0 -294 -154.5 -441.5t-372.5 -147.5q-219 0 -373 147.5t-154 441.5zM288 559q0 -196 91 -315.5t242 -119.5t242 119.5t91 315.5q0 194 -91 314.5t-242 120.5t-242 -120.5t-91 -314.5zM296 1288q0 131 51 193 t129 62q62 0 126 -38l43 -26q82 -52 115 -52q60 0 60 116h127q-6 -102 -27.5 -148t-64.5 -76.5t-95 -30.5q-69 0 -141 48l-44 29q-59 38 -85 38q-71 0 -71 -115h-123z" />
<glyph unicode="&#xf6;" horiz-adv-x="1240" d="M94 559q0 291 154 440t373 149q218 0 372.5 -149t154.5 -440q0 -294 -154.5 -441.5t-372.5 -147.5q-219 0 -373 147.5t-154 441.5zM288 559q0 -196 91 -315.5t242 -119.5t242 119.5t91 315.5q0 194 -91 314.5t-242 120.5t-242 -120.5t-91 -314.5zM310 1288v186h187v-186 h-187zM744 1288v186h188v-186h-188z" />
<glyph unicode="&#xf7;" d="M124 481v156h1117v-156h-1117zM593 140v178h187v-178h-187zM593 791v187h187v-187h-187z" />
<glyph unicode="&#xf8;" horiz-adv-x="1240" d="M94 -30l131 172q-85 107 -108 208.5t-23 213.5q0 288 154.5 436t373.5 148q158 0 292 -84l62 84h172l-129 -177q77 -97 103 -199t26 -216q0 -297 -158.5 -441.5t-363.5 -144.5q-164 0 -293 78l-61 -78h-178zM288 561q0 -148 54 -260l468 626q-84 66 -189 67 q-151 0 -242 -121.5t-91 -311.5zM433 186q83 -62 188 -62q151 0 242 120.5t91 311.5q0 145 -54 258z" />
<glyph unicode="&#xf9;" horiz-adv-x="1194" d="M132 408v710h186v-631q0 -245 65.5 -296t159.5 -51q84 0 157.5 48t117.5 135.5t44 243.5v551h184v-1118h-184v194q-58 -90 -114.5 -135t-116 -67t-128.5 -22q-156 0 -263.5 87.5t-107.5 350.5zM341 1614h215l298 -326h-171z" />
<glyph unicode="&#xfa;" horiz-adv-x="1194" d="M132 408v710h186v-631q0 -245 65.5 -296t159.5 -51q84 0 157.5 48t117.5 135.5t44 243.5v551h184v-1118h-184v194q-58 -90 -114.5 -135t-116 -67t-128.5 -22q-156 0 -263.5 87.5t-107.5 350.5zM403 1288l296 326h215l-342 -326h-169z" />
<glyph unicode="&#xfb;" horiz-adv-x="1194" d="M132 408v710h186v-631q0 -245 65.5 -296t159.5 -51q84 0 157.5 48t117.5 135.5t44 243.5v551h184v-1118h-184v194q-58 -90 -114.5 -135t-116 -67t-128.5 -22q-156 0 -263.5 87.5t-107.5 350.5zM294 1288l233 326h124l233 -326h-156l-140 169l-139 -169h-155z" />
<glyph unicode="&#xfc;" horiz-adv-x="1194" d="M132 408v710h186v-631q0 -245 65.5 -296t159.5 -51q84 0 157.5 48t117.5 135.5t44 243.5v551h184v-1118h-184v194q-58 -90 -114.5 -135t-116 -67t-128.5 -22q-156 0 -263.5 87.5t-107.5 350.5zM280 1288v186h185v-186h-185zM714 1288v186h186v-186h-186z" />
<glyph unicode="&#xfd;" horiz-adv-x="1170" d="M30 1118h206l375 -830l351 830h186l-471 -1120q-95 -225 -159 -298.5t-136 -103.5t-191 -30h-140v154h107q77 0 134.5 21t96.5 66t103 198l19 43zM481 1288l296 326h215l-342 -326h-169z" />
<glyph unicode="&#xfe;" horiz-adv-x="1232" d="M132 -434v1985h186v-629q58 100 110.5 141t118.5 63t136 22q127 0 233 -69t165 -207.5t59 -310.5q0 -255 -122.5 -423t-343.5 -168q-70 0 -134 20t-113 61t-109 143v-628h-186zM318 558q0 -190 82 -312t232 -122q134 0 224.5 108.5t90.5 321.5q0 251 -95 349.5t-217 98.5 q-89 0 -165 -54t-114 -159t-38 -231z" />
<glyph unicode="&#xff;" horiz-adv-x="1170" d="M30 1118h206l375 -830l351 830h186l-471 -1120q-95 -225 -159 -298.5t-136 -103.5t-191 -30h-140v154h107q77 0 134.5 21t96.5 66t103 198l19 43zM296 1288v186h185v-186h-185zM728 1288v186h188v-186h-188z" />
<glyph unicode="&#x152;" horiz-adv-x="2234" d="M94 777q0 389 180.5 605t491.5 216q129 0 233.5 -46t206.5 -171v170h876v-170h-676v-489h591v-156h-591v-566h727v-170h-927v170q-103 -132 -209.5 -174t-231.5 -42q-308 0 -489.5 216t-181.5 607zM302 777q0 -302 120 -484.5t330 -182.5q213 0 334 182t121 485 q0 300 -121 483t-334 183q-210 0 -330 -183t-120 -483z" />
<glyph unicode="&#x153;" horiz-adv-x="2040" d="M94 559q0 299 157 444t367 145q122 0 237 -49t198 -169q92 119 196.5 168.5t226.5 49.5q128 0 231 -54t164 -171t61 -327v-61h-790q0 -180 96 -295.5t267 -115.5q124 0 179 53.5t55 99.5v11h188v-11q0 -74 -59 -151.5t-157.5 -116.5t-213.5 -39q-298 0 -446 224 q-64 -113 -183 -168.5t-249 -55.5q-211 0 -368 145.5t-157 443.5zM288 559q0 -196 91 -315.5t242 -119.5t242 119.5t91 315.5q0 194 -91 314.5t-242 120.5t-242 -120.5t-91 -314.5zM1154 675h604v23q0 66 -38 145t-110.5 117t-146.5 34q-105 0 -192.5 -84t-116.5 -235z" />
<glyph unicode="&#x178;" horiz-adv-x="1248" d="M22 1551h236l388 -627l383 627h196l-499 -820v-731h-200v731zM294 1722v186h187v-186h-187zM728 1722v186h186v-186h-186z" />
<glyph unicode="&#x2c6;" horiz-adv-x="1210" d="M310 1288l233 326h124l233 -326h-156l-139 168l-140 -168h-155z" />
<glyph unicode="&#x2dc;" horiz-adv-x="1210" d="M279 1288q0 132 51.5 194t129.5 62q62 0 126 -40l42 -25q83 -52 116 -52q60 0 60 117h127q-6 -102 -27 -149t-64.5 -77.5t-95.5 -30.5q-68 0 -141 49l-44 29q-59 39 -84 39q-71 0 -71 -116h-125z" />
<glyph unicode="&#x2000;" horiz-adv-x="971" />
<glyph unicode="&#x2001;" horiz-adv-x="1943" />
<glyph unicode="&#x2002;" horiz-adv-x="971" />
<glyph unicode="&#x2003;" horiz-adv-x="1943" />
<glyph unicode="&#x2004;" horiz-adv-x="647" />
<glyph unicode="&#x2005;" horiz-adv-x="485" />
<glyph unicode="&#x2006;" horiz-adv-x="323" />
<glyph unicode="&#x2007;" horiz-adv-x="323" />
<glyph unicode="&#x2008;" horiz-adv-x="242" />
<glyph unicode="&#x2009;" horiz-adv-x="388" />
<glyph unicode="&#x200a;" horiz-adv-x="107" />
<glyph unicode="&#x2010;" horiz-adv-x="776" d="M78 551v155h621v-155h-621z" />
<glyph unicode="&#x2011;" horiz-adv-x="776" d="M78 551v155h621v-155h-621z" />
<glyph unicode="&#x2012;" horiz-adv-x="776" d="M78 551v155h621v-155h-621z" />
<glyph unicode="&#x2013;" horiz-adv-x="1055" d="M62 528v155h931v-155h-931z" />
<glyph unicode="&#x2014;" horiz-adv-x="2110" d="M62 528v155h1986v-155h-1986z" />
<glyph unicode="&#x2018;" horiz-adv-x="620" d="M178 1008v164q0 148 28 225.5t86.5 142.5t149.5 105v-121q-48 -27 -73.5 -67.5t-38.5 -85t-13 -99.5h125v-264h-264z" />
<glyph unicode="&#x2019;" horiz-adv-x="620" d="M178 1008v121q48 28 73.5 68t38.5 84.5t13 99.5h-125v264h264v-164q0 -148 -28.5 -225.5t-87 -142.5t-148.5 -105z" />
<glyph unicode="&#x201a;" horiz-adv-x="620" d="M178 0v264h264v-164q0 -148 -28.5 -225.5t-86.5 -142.5t-149 -104v120q48 28 73.5 68.5t38.5 84.5t13 99h-125z" />
<glyph unicode="&#x201c;" horiz-adv-x="1008" d="M178 977v164q0 148 28 225.5t86.5 142.5t149.5 105v-121q-48 -26 -73.5 -67t-38.5 -85.5t-13 -99.5h125v-264h-264zM566 977v164q0 148 28 225.5t86 142.5t150 105v-121q-48 -26 -73.5 -67t-38.5 -85.5t-13 -99.5h125v-264h-264z" />
<glyph unicode="&#x201d;" horiz-adv-x="1008" d="M178 977v121q48 28 73.5 68t38.5 84.5t13 99.5h-125v264h264v-164q0 -148 -28.5 -225.5t-87 -142.5t-148.5 -105zM566 977v121q46 28 72.5 68t39.5 84.5t13 99.5h-125v264h264v-164q0 -148 -28.5 -225.5t-87 -142.5t-148.5 -105z" />
<glyph unicode="&#x201e;" horiz-adv-x="1008" d="M178 0v264h264v-164q0 -148 -28.5 -225.5t-86.5 -142.5t-149 -104v120q48 28 73.5 68.5t38.5 84.5t13 99h-125zM566 0v264h264v-164q0 -148 -28.5 -225.5t-86.5 -142.5t-149 -104v120q46 28 72.5 68.5t39.5 84.5t13 99h-125z" />
<glyph unicode="&#x2022;" d="M256 768q0 112 55 210.5t155.5 157.5t216.5 59q112 0 212 -57.5t157 -157t57 -212.5q0 -114 -57 -213.5t-156 -156.5t-213 -57q-117 0 -217 59t-155 157t-55 211z" />
<glyph unicode="&#x2026;" horiz-adv-x="2110" d="M221 0v264h264v-264h-264zM923 0v264h264v-264h-264zM1625 0v264h264v-264h-264z" />
<glyph unicode="&#x202f;" horiz-adv-x="388" />
<glyph unicode="&#x2039;" horiz-adv-x="659" d="M85 481v155l335 357h161l-305 -438l305 -431h-170z" />
<glyph unicode="&#x203a;" horiz-adv-x="659" d="M78 124l306 438l-306 431h170l326 -357v-155l-334 -357h-162z" />
<glyph unicode="&#x205f;" horiz-adv-x="485" />
<glyph unicode="&#x20ac;" horiz-adv-x="1524" d="M-78 495l48 110h1047l-48 -110h-1047zM-78 715l48 110h1139l-46 -110h-1141zM100 660q0 280 190 470t470 190t476 -196l-48 -111q-183 198 -428 197q-230 0 -390 -160t-160 -390t160 -390t390 -160q250 0 428 201v-162q-173 -149 -428 -149q-280 0 -470 190t-190 470z " />
<glyph unicode="&#x2122;" horiz-adv-x="1552" d="M85 1446v106h631v-106h-250v-670h-128v670h-253zM802 776v776h122l217 -508l202 508h123v-776h-121v496l-152 -385h-118l-160 379v-490h-113z" />
<glyph unicode="&#xe000;" horiz-adv-x="1115" d="M0 1115h1115v-1115h-1115v1115z" />
<glyph unicode="&#xfb01;" horiz-adv-x="1226" d="M70 962v155h163v52q0 243 102.5 344t267.5 101q62 0 157 -14v-152q-78 10 -125 10q-90 0 -153 -44t-63 -210v-87h659v-1117h-186v962h-473v-962h-186v962h-163z" />
<glyph unicode="&#xfb02;" horiz-adv-x="1226" d="M70 962v155h163v49q0 142 42.5 240t133 153t255.5 55q185 0 414 -36v-1578h-186v1424q-144 34 -236 34q-118 0 -177.5 -64t-59.5 -192v-85h326v-155h-326v-962h-186v962h-163z" />
<glyph unicode="&#xfb03;" horiz-adv-x="2079" d="M1745 0v1117h186v-1117h-186zM1745 1365v187h186v-187h-186zM884 962v155h163v52q0 243 102.5 344t267.5 101q62 0 157 -14v-152q-78 10 -125 10q-90 0 -153 -44t-63 -210v-87h326v-155h-326v-962h-186v962h-163zM85 962v155h163v52q0 243 102.5 344t267.5 101 q62 0 157 -14v-152q-78 10 -125 10q-90 0 -153 -44t-63 -210v-87h326v-155h-326v-962h-186v962h-163z" />
<glyph unicode="&#xfb04;" horiz-adv-x="2079" d="M1745 0v1614h186v-1614h-186zM884 962v155h163v52q0 243 102.5 344t267.5 101q62 0 157 -14v-152q-78 10 -125 10q-90 0 -153 -44t-63 -210v-87h326v-155h-326v-962h-186v962h-163zM85 962v155h163v52q0 243 102.5 344t267.5 101q62 0 157 -14v-152q-78 10 -125 10 q-90 0 -153 -44t-63 -210v-87h326v-155h-326v-962h-186v962h-163z" />
</font>
</defs>
</svg>
